<?xml version="1.0" standalone="no"?><!DOCTYPE svg PUBLIC "-//W3C//DTD SVG 1.1//EN" "http://www.w3.org/Graphics/SVG/1.1/DTD/svg11.dtd"><svg t="1543809666315" class="icon" style="" viewBox="0 0 1024 1024" version="1.1" xmlns="http://www.w3.org/2000/svg" p-id="2824" xmlns:xlink="http://www.w3.org/1999/xlink" width="200" height="200"><defs><style type="text/css"></style></defs><path d="M398.272 290.432a230.144 230.144 0 0 1 66.752-164.288A229.696 229.696 0 0 1 628.288 57.152h1.6c61.312 0 118.912 23.68 162.624 66.752a230.336 230.336 0 0 1 69.056 163.328 28.16 28.16 0 0 1-27.968 28.288h-0.256a28.16 28.16 0 0 1-28.16-27.904 173.952 173.952 0 0 0-52.16-123.776 174.336 174.336 0 0 0-124.352-50.56 175.68 175.68 0 0 0-174.208 176.64 28.224 28.224 0 0 1-27.904 28.352h-0.128a27.904 27.904 0 0 1-28.16-27.84z m318.848-89.984c23.68 23.36 36.736 54.464 37.056 87.616a28.224 28.224 0 0 1-27.904 28.352h-0.32a27.968 27.968 0 0 1-28.032-27.904 68.16 68.16 0 0 0-136.192 0.96 28.16 28.16 0 0 1-27.84 28.352l-0.064-0.256a27.968 27.968 0 0 1-28.096-27.904 124.352 124.352 0 0 1 123.264-125.12h0.96c32.832 0 63.872 12.736 87.168 35.904z m-166.336 632.064H222.336C110.208 832.512 18.56 740.864 18.56 628.8S110.208 424.96 222.336 424.96H601.6V289.216a28.16 28.16 0 0 1 56.256 0v135.808c0 1.024-0.512 1.856-0.64 2.816 42.304 5.824 70.784 17.088 100.8 44.736-17.6 12.992-21.952 22.72-38.592 33.6-24.896-17.92-58.816-24.896-89.728-24.896H222.336c-39.168 0-76.096 15.424-104.128 43.456a146.816 146.816 0 0 0-0.064 208.256 146.048 146.048 0 0 0 104.128 43.328h328.448c-0.128 4.224 0 8.256 0 12.544 0.064 14.912-1.792 29.184 0.064 43.648zM359.232 580.608a48.128 48.128 0 0 1 0 96.32 48.128 48.128 0 0 1 0-96.32z m-136.896 0c26.496 0 48.064 21.632 48.064 48.192v0.064a48 48 0 1 1-96.128-0.064 48.128 48.128 0 0 1 48.064-48.192z m738.688 195.904a153.088 153.088 0 0 1-176 28.736l-176 161.536-49.152-49.024 161.6-176.128c-28.544-57.152-20.352-128.832 28.672-175.936a153.408 153.408 0 0 1 161.856-34.688l-88.128 88a22.08 22.08 0 0 0 0 30.656l53.248 53.376a22.4 22.4 0 0 0 30.656 0l87.936-88.128c20.48 55.232 8.384 118.528-34.688 161.6z" p-id="2825" fill="#ffffff"></path></svg>