<?xml version="1.0" standalone="no"?><!DOCTYPE svg PUBLIC "-//W3C//DTD SVG 1.1//EN" "http://www.w3.org/Graphics/SVG/1.1/DTD/svg11.dtd"><svg t="1543809148042" class="icon" style="" viewBox="0 0 1303 1024" version="1.1" xmlns="http://www.w3.org/2000/svg" p-id="2629" xmlns:xlink="http://www.w3.org/1999/xlink" width="254.4921875" height="200"><defs><style type="text/css"></style></defs><path d="M1210.181818 0H93.090909C37.236364 0 0 46.545455 0 93.090909v837.818182c0 55.854545 37.236364 93.090909 93.090909 93.090909h1117.090909c46.545455 0 93.090909-46.545455 93.090909-93.090909V93.090909c0-46.545455-37.236364-93.090909-93.090909-93.090909zM409.6 930.909091H93.090909V744.727273h316.509091v186.181818z m0-269.963636H93.090909V484.072727h316.509091v176.872728z m0-269.963637H93.090909V214.109091h316.509091v176.872727zM819.2 930.909091H484.072727V744.727273h325.818182v186.181818z m0-269.963636H484.072727V484.072727h325.818182v176.872728z m0-269.963637H484.072727V214.109091h325.818182v176.872727zM1210.181818 930.909091H893.672727V744.727273H1210.181818v186.181818z m0-269.963636H893.672727V484.072727H1210.181818v176.872728z m0-269.963637H893.672727V214.109091H1210.181818v176.872727z" p-id="2630" fill="#ffffff"></path></svg>