<?xml version="1.0" encoding="utf-8"?>
<!-- Generator: Adobe Illustrator 21.0.0, SVG Export Plug-In . SVG Version: 6.00 Build 0)  -->
<svg version="1.1" id="图层_1" xmlns="http://www.w3.org/2000/svg" xmlns:xlink="http://www.w3.org/1999/xlink" x="0px" y="0px"
	 viewBox="0 0 200 200" style="enable-background:new 0 0 200 200;" xml:space="preserve">
<style type="text/css">
	.st0{fill:#90A3AD;}
</style>
<path class="st0" d="M30,144.2c0,2.3,1.9,4.2,4.2,4.2c2.3,0,4.2-1.9,4.2-4.2s-1.9-4.2-4.2-4.2C31.9,140,30,141.9,30,144.2z"/>
<path class="st0" d="M42.5,144.2c0,2.3,1.9,4.2,4.2,4.2c2.3,0,4.2-1.9,4.2-4.2c0,0,0,0,0,0c0-2.3-1.9-4.2-4.2-4.2
	C44.4,140,42.5,141.9,42.5,144.2z"/>
<path class="st0" d="M191.7,148.3l-4.2-20c-0.8-1.7-1.7-5-2.5-7.5c-1.7-6.7-5-13.3-10-18.3l-13.3-24.2c-3.3-3.3-8.3-6.7-13.3-6.7
	h-12.5V30c0-2.5-1.7-4.2-4.2-4.2s-4.2,1.7-4.2,4.2v41.7h-75c-5,0-10.8,3.3-13.3,7.5l-23.3,41.7c-0.8,1.7-2.5,5.8-3.3,7.5l-4.2,20
	c-1.7,9.2,4.2,16.7,13.3,16.7h97.5c6.7,5.8,15.8,9.2,25.8,9.2s18.3-3.3,25.8-9.2h7.5C187.5,165,193.3,157.5,191.7,148.3L191.7,148.3
	z M125,124.2v-5.8h5v-7.5h5.8v7.5h4.2v5.8h-4.2v6.7l4.2-0.8v5.8c-0.8,0-1.7,0.8-4.2,0.8v10.8c0,2.5-0.8,3.3-1.7,4.2
	c-0.8,0.8-3.3,0.8-7.5,0.8c0-1.7-0.8-3.3-1.7-5.8h2.5c0.8,0,1.7,0,1.7-0.8v-9.2l-4.2,2.5l-0.8-5.8l5-0.8V125H125V124.2z M165,117.5
	c-5.8,0.8-11.7,1.7-19.2,2.5v5h20.8v5.8h-7.5v7.5l7.5,2.5c-0.8,1.7-1.7,3.3-2.5,5.8l-5-2.5v9.2h-5.8v-11.7l-7.5-2.5l2.5-5l5,1.7V130
	h-7.5v4.2c0,7.5-1.7,14.2-4.2,19.2c-1.7-0.8-3.3-2.5-5-3.3c2.5-3.3,4.2-8.3,4.2-15.8V115c8.3-0.8,15.8-1.7,22.5-2.5L165,117.5
	L165,117.5z M50,80.8h100.8c0.8,0,5,5.8,9.2,12.5c-5-1.7-10-2.5-15-2.5c-20,0-36.7,14.2-40.8,32.5H25C30.8,111.7,46.7,80.8,50,80.8z
	 M17.5,148.3l4.2-17.5v0.8h80.8v0.8c0,9.2,3.3,17.5,8.3,24.2H24.2C20,156.7,16.7,152.5,17.5,148.3z M179.2,155.8
	c1.7-1.7,2.5-4.2,3.3-6.7C182.5,152.5,181.7,155,179.2,155.8z"/>
</svg>
