<?xml version="1.0" standalone="no"?><!DOCTYPE svg PUBLIC "-//W3C//DTD SVG 1.1//EN" "http://www.w3.org/Graphics/SVG/1.1/DTD/svg11.dtd"><svg t="1542360902667" class="icon" style="" viewBox="0 0 1024 1024" version="1.1" xmlns="http://www.w3.org/2000/svg" p-id="14267" xmlns:xlink="http://www.w3.org/1999/xlink" width="200" height="200"><defs><style type="text/css"></style></defs><path d="M960.213333 867.754667h-63.658666V398.208c0-39.125333-31.829333-70.826667-70.912-70.826667h-221.952v533.12h-21.717334V327.338667h-0.128V162.688a70.826667 70.826667 0 0 0-70.826666-70.826667h-320a70.826667 70.826667 0 0 0-70.869334 70.826667v705.024H63.872a35.498667 35.498667 0 0 0 0 70.912h896.341333a35.498667 35.498667 0 0 0 0-70.869333zM320.512 705.28a8.789333 8.789333 0 0 1-8.917333 8.789333H235.477333a8.746667 8.746667 0 0 1-8.832-8.789333v-31.914667c0-4.906667 3.882667-8.917333 8.832-8.917333h76.117334c4.992 0 8.917333 4.010667 8.917333 8.917333v31.914667z m0-186.197333a8.874667 8.874667 0 0 1-8.917333 8.917333H235.477333a8.832 8.832 0 0 1-8.832-8.917333v-31.829334c0-4.906667 3.882667-8.832 8.832-8.832h76.117334c4.992 0 8.917333 3.925333 8.917333 8.832v31.829334z m0-182.144a8.832 8.832 0 0 1-8.917333 8.832H235.477333a8.789333 8.789333 0 0 1-8.832-8.832v-31.829334c0-5.034667 3.882667-8.917333 8.832-8.917333h76.117334c4.992 0 8.917333 3.925333 8.917333 8.917333v31.829334z m154.922667 368.341333a8.746667 8.746667 0 0 1-8.874667 8.789333H390.4a8.746667 8.746667 0 0 1-8.874667-8.789333v-31.914667c0-4.906667 3.925333-8.917333 8.874667-8.917333h76.16c4.949333 0 8.874667 4.010667 8.874667 8.917333v31.914667z m0-186.197333a8.832 8.832 0 0 1-8.874667 8.917333H390.4a8.832 8.832 0 0 1-8.874667-8.917333v-31.829334c0-4.906667 3.925333-8.832 8.874667-8.832h76.16c4.949333 0 8.874667 3.925333 8.874667 8.832v31.829334z m0-182.144a8.789333 8.789333 0 0 1-8.874667 8.832H390.4a8.789333 8.789333 0 0 1-8.874667-8.832v-31.829334c0-5.034667 3.925333-8.917333 8.874667-8.917333h76.16c4.949333 0 8.874667 3.925333 8.874667 8.917333v31.829334z m292.864 368.341333a8.746667 8.746667 0 0 1-8.874667 8.789333h-76.16a8.704 8.704 0 0 1-8.832-8.789333v-31.914667c0-4.906667 3.882667-8.917333 8.832-8.917333h76.16c4.949333 0 8.874667 4.010667 8.874667 8.917333v31.914667z m0-186.197333a8.832 8.832 0 0 1-8.874667 8.917333h-76.16a8.789333 8.789333 0 0 1-8.832-8.917333v-31.829334c0-4.906667 3.882667-8.832 8.832-8.832h76.16c4.949333 0 8.874667 3.925333 8.874667 8.832v31.829334z" p-id="14268" fill="#e8c260"></path></svg>