<?xml version="1.0" standalone="no"?><!DOCTYPE svg PUBLIC "-//W3C//DTD SVG 1.1//EN" "http://www.w3.org/Graphics/SVG/1.1/DTD/svg11.dtd"><svg t="1542361022349" class="icon" style="" viewBox="0 0 1126 1024" version="1.1" xmlns="http://www.w3.org/2000/svg" p-id="15109" xmlns:xlink="http://www.w3.org/1999/xlink" width="219.921875" height="200"><defs><style type="text/css"></style></defs><path d="M656.4352 37.376c-36.7104 18.7392-64.256 46.7968-91.8016 74.8544C500.3776 42.0864 413.184 0 321.3312 0 142.336 0 0 144.9472 0 327.3216 0 392.704 18.3808 453.5296 55.0912 509.6448c0 0 0 4.7104 4.608 4.7104l78.0288 79.4624-22.9888 23.3984c-27.4944 28.0576-27.4944 70.144 0 93.4912 27.5456 28.0576 68.864 28.0576 91.8528 0l110.1824-112.2304c27.4944-28.0064 27.4944-70.144 0-93.4912-27.5456-28.0576-68.864-28.0576-91.8528 0l-50.4832 51.456-73.4208-74.8544c-27.5456-42.0864-41.3184-93.4912-41.3184-149.6064 0-149.6064 119.296-271.2064 266.24-271.2064 78.0288 0 151.5008 32.768 201.984 93.5424l-9.216 9.3184c-59.648 56.1152-257.024 261.888-257.024 261.888s146.8928 210.432 321.3312 32.7168l114.7392-107.52s156.1088 154.2656 234.1376 229.0688l36.7104 37.376c9.216 9.3696 9.216 18.7392 9.216 28.1088 0 9.3184-4.608 18.688-9.216 28.0576-9.216 9.3184-18.3296 9.3184-27.5456 9.3184a34.7136 34.7136 0 0 1-22.9376-9.3184l-4.608-4.7104-110.1824-112.1792c-9.1648-9.3696-27.4944-9.3696-36.7104 0-9.216 9.3184-9.216 28.0576 0 37.376l110.1824 112.2304 4.608 4.6592c4.608 4.7104 9.1648 14.0288 9.1648 23.3984s-4.608 18.688-9.216 28.0576c-9.1648 9.3184-18.3296 9.3184-27.4944 9.3184-9.216 0-18.3808-4.608-27.5456-9.3184l-110.1824-112.2304c-9.216-9.3696-27.5456-9.3696-36.7104 0-9.216 9.3696-9.216 18.688-4.608 28.0576 0 4.6592 4.608 9.3696 9.216 14.0288l110.1312 112.2304c9.216 14.0288 9.216 42.0864-4.608 56.1152-13.7216 14.0288-36.7104 18.688-50.4832 9.3184l-4.608-4.6592-78.0288-79.5136c-9.1648-9.3184-27.5456-9.3184-36.7104 0l-4.608 4.7104c-27.5456-23.3984-64.256-18.7392-87.1936 4.6592l-110.1824 112.2304c-27.5456 28.0576-27.5456 70.144 0 93.4912 27.5456 28.0576 68.864 28.0576 91.8016 0l45.9264-46.7456 41.3184 42.0864c18.3296 18.688 41.3184 28.0576 64.256 28.0576 22.9376 0 45.9264-9.3696 64.256-28.0576 18.3808-18.688 27.5456-42.0864 27.5456-70.144h9.216c22.9376-4.6592 45.8752-14.0288 64.256-32.768 18.3296-18.6368 27.5456-46.6944 27.5456-70.0928h4.608c22.9376 0 45.8752-9.3696 64.256-28.0576a93.184 93.184 0 0 0 27.5456-65.4336c22.9376 0 45.8752-9.3696 64.256-28.0576a97.2288 97.2288 0 0 0 0-135.6288l-22.9376-23.3472c36.7104-32.768 68.8128-70.144 87.1936-112.2304a314.624 314.624 0 0 0 27.5456-93.5424C1129.2672 107.52 867.6352-74.752 656.4352 37.4272z m22.9888 930.5088c-13.824 14.0288-36.7616 14.0288-55.0912 0l-41.3184-42.0864 27.5456-28.0576c9.216-14.0288 18.3296-28.0576 18.3296-42.0864l50.5344 51.456 4.608 4.6592c9.1648 18.7392 9.1648 42.0864-4.608 56.1152z m-266.24-271.2064c27.4944-28.0576 27.4944-70.144 0-93.4912-27.5968-28.0576-68.9152-28.0576-91.8528 0l-110.1824 112.2304c-27.5456 28.0576-27.5456 70.144 0 93.4912 27.5456 28.0576 68.864 28.0576 91.8528 0l110.1312-112.2304z m96.3584 102.912c27.5456-28.1088 27.5456-70.144 0-93.5424-27.5456-28.0576-68.864-28.0576-91.8016 0l-110.1824 112.2304c-27.5456 28.0576-27.5456 70.144 0 93.4912 27.5456 28.0576 68.864 28.0576 91.8016 0l110.1824-112.2304z" fill="#e8c260" p-id="15110"></path></svg>