<?xml version="1.0" standalone="no"?><!DOCTYPE svg PUBLIC "-//W3C//DTD SVG 1.1//EN" "http://www.w3.org/Graphics/SVG/1.1/DTD/svg11.dtd"><svg t="1543813984208" class="icon" style="" viewBox="0 0 1024 1024" version="1.1" xmlns="http://www.w3.org/2000/svg" p-id="1944" xmlns:xlink="http://www.w3.org/1999/xlink" width="200" height="200"><defs><style type="text/css"></style></defs><path d="M958.837 535.057H844.41v-19.655c0-11.069-0.625-21.99-1.763-32.763h116.19c14.574 0 26.405 11.73 26.405 26.203 0 14.475-11.831 26.215-26.405 26.215zM769.908 314.4c-11.506-13.465-24.156-25.923-37.782-37.302l84.6-83.97c10.41-10.328 27.283-10.328 37.678 0 10.41 10.328 10.41 27.075 0 37.401l-84.496 83.87z m21.689 517.705h61.6c14.59 0 26.407 11.738 26.407 26.214 0 14.473-11.817 26.214-26.406 26.214H201.83c-14.575 0-26.407-11.74-26.407-26.214 0-14.475 11.832-26.214 26.407-26.214h61.615v-314.52c0-144.762 118.23-262.103 264.075-262.103 145.83 0 264.076 117.341 264.076 262.103v314.52zM738.77 535.057c0-115.803-94.568-209.688-211.25-209.688-116.666 0-211.264 93.886-211.264 209.688v297.048H738.77V535.057zM532.23 423.412c10.325-10.235 27.039-10.235 37.348 0 10.326 10.235 10.326 26.834 0 37.069l-57.418 56.988h94.853c14.587 0 26.406 11.729 26.406 26.214 0 3.657-0.772 7.127-2.135 10.289 2.93 9.353 1.002 19.906-6.467 27.32L521.29 684.056c-10.727 10.65-28.101 10.65-38.828 0-10.726-10.637-10.726-27.89 0-38.538l76.194-75.633h-92.477c-4.506 0-8.547-1.408-12.259-3.382-7.61 0.757-15.44-1.387-21.268-7.174-10.311-10.235-10.311-26.833 0-37.068l99.578-98.849z m-30.842-219.059V80.634c0-14.485 11.817-26.215 26.407-26.215 14.589 0 26.406 11.73 26.406 26.215v123.747c-8.817-0.726-17.672-1.328-26.68-1.328-8.823 0-17.493 0.603-26.133 1.3zM289.51 309.666l-85.64-85.005c-10.31-10.235-10.31-26.822 0-37.057 10.309-10.247 27.024-10.247 37.332 0l86.29 85.646c-13.722 11.025-26.311 23.307-37.982 36.416z m-78.862 205.736v19.655H96.205c-14.587 0-26.406-11.74-26.406-26.216 0-14.474 11.819-26.203 26.406-26.203h116.206c-1.14 10.773-1.763 21.695-1.763 32.764z" fill="#ffffff" p-id="1945"></path></svg>