<?xml version="1.0" standalone="no"?><!DOCTYPE svg PUBLIC "-//W3C//DTD SVG 1.1//EN" "http://www.w3.org/Graphics/SVG/1.1/DTD/svg11.dtd"><svg t="1543298001756" class="icon" style="" viewBox="0 0 1024 1024" version="1.1" xmlns="http://www.w3.org/2000/svg" p-id="21225" xmlns:xlink="http://www.w3.org/1999/xlink" width="200" height="200"><defs><style type="text/css"></style></defs><path d="M482.592047 661.301915l270.703977-198.31517a66.356406 66.356406 0 0 0 14.326951-92.748159l-49.767305-67.864506a66.356406 66.356406 0 0 0-92.748159-13.572902L355.911635 485.608247a75.405007 75.405007 0 0 0-19.605302 21.113402L218.674521 691.463918a25.637703 25.637703 0 0 0 28.653903 39.210603l212.642121-57.307805a68.618557 68.618557 0 0 0 22.621502-12.064801zM656.777614 331.782032a12.818851 12.818851 0 0 1 18.097202 0l49.767305 67.864507a12.818851 12.818851 0 0 1 0 18.097202L469.019146 605.502209l-64.848307-90.486009zM301.620029 659.793814l75.405008-113.107511 57.307805 75.405008zM688.447717 747.263623H289.555228a38.456554 38.456554 0 1 0 0 75.405007h398.892489a38.456554 38.456554 0 0 0 0-75.405007z" p-id="21226" fill="#ffffff"></path><path d="M871.681885 87.469809A112.353461 112.353461 0 0 0 763.098675 0H266.179676a112.353461 112.353461 0 0 0-109.337261 87.469809H30.916053v936.530191h962.167894V87.469809z m-603.240059-15.835052h496.918999a42.603829 42.603829 0 0 1 0 85.207658H266.179676a42.603829 42.603829 0 0 1 0-85.207658z m653.007364 880.730486H102.55081V159.104566h58.815906a113.861561 113.861561 0 0 0 104.81296 68.618556h496.918999a113.861561 113.861561 0 0 0 104.81296-68.618556h53.537555z" p-id="21227" fill="#ffffff"></path></svg>