<?xml version="1.0" standalone="no"?><!DOCTYPE svg PUBLIC "-//W3C//DTD SVG 1.1//EN" "http://www.w3.org/Graphics/SVG/1.1/DTD/svg11.dtd"><svg t="1543297478186" class="icon" style="" viewBox="0 0 1024 1024" version="1.1" xmlns="http://www.w3.org/2000/svg" p-id="14161" xmlns:xlink="http://www.w3.org/1999/xlink" width="200" height="200"><defs><style type="text/css"></style></defs><path d="M571.904 501.76L885.76 187.904c15.872-15.872 15.872-41.984 0-57.856l-1.536-1.536c-15.872-15.872-41.984-15.872-57.856 0L512 442.368 198.144 128c-15.872-15.872-41.984-15.872-57.856 0l-1.536 1.536a40.192 40.192 0 0 0 0 57.856L452.608 501.76l-313.856 313.856c-15.872 15.872-15.872 41.984 0 57.856l1.536 1.536c15.872 15.872 41.984 15.872 57.856 0l313.856-313.856 313.856 313.856c15.872 15.872 41.984 15.872 57.856 0l1.536-1.536c15.872-15.872 15.872-41.984 0-57.856L571.904 501.76z" p-id="14162" fill="#7f7f7f"></path></svg>