<?xml version="1.0" standalone="no"?><!DOCTYPE svg PUBLIC "-//W3C//DTD SVG 1.1//EN" "http://www.w3.org/Graphics/SVG/1.1/DTD/svg11.dtd"><svg t="1543809856211" class="icon" style="" viewBox="0 0 1024 1024" version="1.1" xmlns="http://www.w3.org/2000/svg" p-id="4197" xmlns:xlink="http://www.w3.org/1999/xlink" width="200" height="200"><defs><style type="text/css"></style></defs><path d="M801.792 784.1792c-7.7824 0-15.1552 3.072-20.8896 8.3968-5.5296 5.5296-8.6016 12.9024-8.6016 20.8896V921.6c0 12.6976-10.24 23.1424-23.1424 23.1424h-647.168c-12.6976 0-23.1424-10.24-23.1424-23.1424V101.9904c0-12.6976 10.24-23.1424 23.1424-23.1424h647.3728c12.6976 0 23.1424 10.24 23.1424 23.1424v100.9664c-0.8192 10.8544 4.7104 21.504 13.9264 27.0336 9.4208 5.7344 21.2992 5.7344 30.5152 0 9.4208-5.7344 14.7456-15.9744 13.9264-27.0336V93.7984c0-40.3456-32.768-73.1136-73.3184-73.3184H93.7984C53.248 20.48 20.48 53.4528 20.48 93.7984v836.4032c0 40.3456 32.768 73.1136 73.3184 73.3184H757.76c40.3456 0 73.1136-32.768 73.3184-73.3184v-116.736c0-15.9744-12.9024-29.2864-29.2864-29.2864z" p-id="4198" fill="#ffffff"></path><path d="M984.064 412.8768l-12.288-29.2864-107.52 103.6288c-9.8304 9.4208-23.1424 14.7456-36.864 14.5408-13.7216 0-27.2384-5.12-37.0688-14.5408-9.4208-9.4208-14.7456-22.528-14.5408-35.84 0-13.7216 4.9152-25.8048 14.5408-34.2016l107.3152-103.6288-30.9248-12.288c-26.4192-10.24-54.272-15.5648-82.5344-15.9744-57.9584 0-111.0016 21.2992-151.552 60.6208-60.2112 56.9344-79.0528 144.7936-47.9232 221.5936l-204.5952 198.0416c-15.9744 15.36-25.3952 36.864-25.8048 59.1872 0 21.9136 8.6016 43.008 25.8048 59.1872 15.9744 15.9744 38.0928 24.7808 61.44 24.7808 23.3472 0 44.4416-8.6016 61.44-24.7808l205.4144-198.0416c24.7808 8.8064 51.8144 13.7216 77.4144 13.7216 57.9584 0 111.0016-21.0944 151.552-60.6208 61.2352-60.2112 80.2816-148.6848 46.6944-226.0992z m-76.1856 194.3552a173.48608 173.48608 0 0 1-120.832 48.128c-25.6 0.2048-50.7904-5.3248-73.728-15.9744l-13.5168-5.9392-228.1472 217.7024c-16.9984 15.9744-43.4176 15.9744-60.6208 0-7.5776-7.3728-12.0832-17.8176-12.288-28.4672 0-11.0592 4.9152-21.0944 12.288-28.672l227.9424-219.136-5.9392-13.5168c-30.9248-62.2592-17.408-137.4208 33.5872-184.9344 32.5632-30.9248 75.5712-48.128 120.6272-48.128 10.8544 0 21.0944 1.4336 32.1536 2.2528l-57.7536 54.0672c-18.2272 16.9984-28.4672 40.3456-28.672 65.1264 0 24.7808 9.4208 48.128 28.672 65.1264 18.432 17.408 41.5744 27.0336 67.7888 27.0336 26.0096 0 48.9472-9.6256 67.7888-27.0336l57.9584-55.5008c9.4208 54.272-8.3968 109.568-47.3088 147.8656z" p-id="4199" fill="#ffffff"></path><path d="M441.5488 911.36c-24.576 0-47.104-9.0112-63.6928-25.8048-17.2032-15.7696-26.8288-38.0928-26.8288-61.44 0.4096-23.1424 10.0352-45.4656 26.8288-61.6448l202.9568-196.608c-30.72-77.4144-11.0592-166.0928 49.7664-223.232 41.1648-39.936 96.4608-62.0544 153.8048-61.44 28.8768 0.4096 56.9344 5.9392 83.5584 16.1792l35.4304 14.1312-3.4816 3.4816-107.3152 103.6288c-9.0112 7.9872-13.9264 19.8656-13.5168 31.9488-0.2048 12.4928 4.7104 24.7808 13.5168 33.3824 9.4208 8.8064 21.9136 13.7216 34.816 13.5168 12.9024 0.2048 25.3952-4.7104 34.6112-13.5168l110.7968-106.9056 14.1312 33.5872c33.792 78.2336 15.1552 168.3456-47.3088 229.5808-41.1648 39.7312-96.4608 61.8496-153.8048 61.44-26.2144-0.2048-52.0192-4.7104-76.5952-13.1072l-203.9808 196.608c-17.2032 17.2032-39.936 26.2144-63.6928 26.2144z m342.4256-623.2064c-56.9344 0-109.7728 21.2992-149.0944 59.5968-59.392 55.9104-78.2336 142.336-47.3088 218.112l0.8192 2.048-1.6384 1.6384-204.5952 198.0416c-15.36 14.9504-24.3712 35.4304-24.7808 56.9344 0 21.7088 8.8064 41.5744 24.7808 56.7296 15.36 15.36 36.4544 23.9616 59.392 23.9616 22.1184 0 42.5984-8.192 59.392-23.7568l206.848-199.4752 1.8432 0.6144c25.1904 8.8064 51.6096 13.5168 76.3904 13.5168 56.9344 0 109.7728-21.2992 149.0944-59.5968 60.6208-59.1872 78.6432-146.432 45.8752-222.208l-10.4448-24.9856-104.0384 100.352c-10.4448 10.0352-24.7808 15.5648-39.3216 15.36-14.5408 0-28.8768-5.3248-39.5264-15.36-10.0352-10.0352-15.7696-23.9616-15.5648-38.2976 0-14.7456 5.3248-27.648 15.5648-36.6592l103.6288-100.1472-26.2144-10.4448c-25.8048-10.24-53.248-15.5648-81.1008-15.9744zM441.344 866.5088c-12.0832 0-23.7568-4.5056-32.5632-12.9024-8.3968-7.9872-13.1072-19.2512-13.312-30.72 0.2048-11.6736 4.9152-22.7328 13.312-30.9248l226.5088-217.7024-5.12-11.4688c-31.744-63.488-17.8176-140.288 34.2016-188.6208 32.9728-31.5392 76.8-48.9472 122.6752-48.9472h0.2048c7.9872 0 15.36 0.8192 23.3472 1.4336l9.0112 0.8192 7.3728 0.6144L763.904 387.072c-17.408 16.1792-27.4432 38.912-27.4432 62.6688 0 24.576 9.6256 46.6944 27.4432 62.6688 18.2272 17.2032 40.7552 26.2144 65.7408 26.2144 24.576 0 47.104-9.0112 65.536-26.2144l62.2592-59.5968 1.024 5.9392c9.6256 55.0912-8.192 111.2064-48.128 150.528-32.9728 31.5392-76.8 49.3568-122.4704 48.9472-27.2384 0-52.6336-5.5296-75.5712-16.5888l-11.4688-4.9152-226.9184 216.6784c-8.6016 8.6016-20.48 13.1072-32.5632 13.1072z m345.7024-534.9376c-44.032 0-86.2208 16.7936-118.1696 47.104-50.176 46.2848-63.2832 120.2176-32.768 181.0432l6.9632 15.7696-229.7856 221.184c-6.9632 6.7584-11.0592 16.1792-11.264 26.2144 0.2048 9.8304 4.3008 19.2512 11.4688 26.0096 15.5648 14.7456 40.1408 14.7456 55.9104 0l229.5808-219.3408 15.5648 6.7584c22.528 10.4448 46.6944 15.7696 72.4992 15.7696 44.6464 0 86.6304-16.9984 118.5792-47.3088 36.6592-36.0448 54.272-87.4496 47.3088-138.4448l-53.4528 51.2c-19.6608 18.432-43.8272 28.0576-70.0416 28.0576-26.624 0-50.9952-9.6256-70.0416-28.0576-19.2512-17.2032-29.9008-41.7792-29.4912-67.584 0.2048-25.6 10.8544-50.176 29.4912-67.584l52.4288-48.9472c-0.6144 0-1.2288-0.2048-1.8432-0.2048-7.5776-0.6144-14.9504-1.4336-22.9376-1.4336v-0.2048z m-272.5888-20.48c0 14.336-11.6736 26.2144-26.2144 26.2144H166.912c-9.216 0-18.0224-4.9152-22.7328-13.1072-4.7104-7.9872-4.7104-18.2272 0-26.2144 4.7104-7.9872 13.312-13.1072 22.7328-13.1072h321.3312c14.5408 0 26.2144 11.6736 26.2144 26.2144z m196.4032-111.8208c0 6.9632-2.6624 13.5168-7.5776 18.6368-4.9152 4.9152-11.4688 7.5776-18.6368 7.5776H166.912c-9.216 0-18.0224-4.9152-22.7328-13.1072-4.7104-7.9872-4.7104-18.2272 0-26.2144 4.7104-7.9872 13.312-13.1072 22.7328-13.1072h517.7344c6.9632 0 13.5168 2.6624 18.6368 7.5776 4.7104 5.12 7.5776 11.6736 7.5776 18.6368z m-327.4752 217.088c0 6.9632-2.6624 13.5168-7.5776 18.6368-4.9152 4.9152-11.4688 7.5776-18.6368 7.5776H166.912c-9.216 0-18.0224-4.9152-22.7328-13.1072-4.7104-7.9872-4.7104-18.2272 0-26.2144 4.7104-7.9872 13.312-13.1072 22.7328-13.1072h190.2592c6.9632 0 13.5168 2.6624 18.6368 7.5776 4.9152 4.9152 7.5776 11.6736 7.5776 18.6368z" p-id="4200" fill="#ffffff"></path></svg>