<?xml version="1.0" standalone="no"?><!DOCTYPE svg PUBLIC "-//W3C//DTD SVG 1.1//EN" "http://www.w3.org/Graphics/SVG/1.1/DTD/svg11.dtd"><svg t="1543298335360" class="icon" style="" viewBox="0 0 1024 1024" version="1.1" xmlns="http://www.w3.org/2000/svg" p-id="28279" xmlns:xlink="http://www.w3.org/1999/xlink" width="200" height="200"><defs><style type="text/css"></style></defs><path d="M201.8 656.7h-84.6c-8.3 0-15-6.7-15-15v-420c0-8.3 6.7-15 15-15h620c8.3 0 15 6.7 15 15v76c0 8.3 6.7 15 15 15s15-6.7 15-15v-76c0-24.8-20.2-45-45-45h-620c-24.8 0-45 20.2-45 45v420c0 24.8 20.2 45 45 45h84.6c8.3 0 15-6.7 15-15s-6.7-15-15-15z" p-id="28280" fill="#ffffff"></path><path d="M912.8 339.7h-620c-24.8 0-45 20.2-45 45v420c0 24.8 20.2 45 45 45h620c24.8 0 45-20.2 45-45v-420c0-24.8-20.2-45-45-45z m15 465c0 8.3-6.7 15-15 15h-620c-8.3 0-15-6.7-15-15v-420c0-8.3 6.7-15 15-15h620c8.3 0 15 6.7 15 15v420z" p-id="28281" fill="#ffffff"></path><path d="M502.6 587c-8.4-5.2-25.6-11.6-51.5-19-18.9-5.4-31.6-9.7-38.4-12.9-12.5-6.7-18.8-15.6-18.8-26.6 0-12.9 5.2-22.3 15.7-28.3 9.3-5.6 22-8.4 38.1-8.4 17.5 0 31 4 40.3 12 9.5 8.2 15.4 20.1 17.6 35.6h17.1c-1.7-20.7-9.1-36.4-22.4-47-12.9-10.6-30.2-16-52.1-16-20.5 0-37.1 4.3-49.8 12.9-14.4 9.1-21.6 22.4-21.6 39.8 0 16.4 7.7 28.9 23 37.5 6.7 3.9 22 9.2 45.9 16 21.8 6 36.5 11.1 44 15.4 13.6 7.7 20.4 18.3 20.4 31.9 0 11.8-5.4 21.2-16.2 28.3-11.2 6.9-25.5 10.4-42.8 10.4-18.3 0-32.6-4.1-42.8-12.3-11-9.1-17.5-23.1-19.6-42h-16.8c1.7 24.3 10.1 42.4 25.2 54.3 13.3 10.5 31.4 15.7 54.3 15.7 22.8 0 41-4.8 54.6-14.3 14.4-10.1 21.6-23.7 21.6-40.9-0.1-18.2-8.4-32.2-25-42.1zM559.7 480.4h17.1v199.9h-17.1zM722.1 658.7h-0.8l-78.4-178.3h-22.7v199.9h17.1V508.6h1.1l74.8 171.7h16.5l75-171.7h0.9v171.7h17V480.4H800z" p-id="28282" fill="#ffffff"></path></svg>