<?xml version="1.0" standalone="no"?><!DOCTYPE svg PUBLIC "-//W3C//DTD SVG 1.1//EN" "http://www.w3.org/Graphics/SVG/1.1/DTD/svg11.dtd"><svg t="1543809100285" class="icon" style="" viewBox="0 0 1024 1024" version="1.1" xmlns="http://www.w3.org/2000/svg" p-id="1853" xmlns:xlink="http://www.w3.org/1999/xlink" width="200" height="200"><defs><style type="text/css"></style></defs><path d="M509.6 810c-131 0-233.6-59.6-296.6-109.6-79-62.7-130.7-136.5-152.8-184.7-1.5-3.3-1.5-7.1 0-10.4 22.1-48.2 73.9-122 152.8-184.7 63-50 165.6-109.6 296.6-109.6s233.6 59.6 296.6 109.6c79 62.7 130.7 136.5 152.8 184.7 1.5 3.3 1.5 7.1 0 10.4-22.1 48.2-73.9 122-152.8 184.7-63.1 50-165.7 109.6-296.6 109.6zM85.4 510.5c22.1 45.6 70.5 112.6 143.2 170.3 59.9 47.5 157.3 104.2 281 104.2 123.7 0 221.1-56.7 281-104.2 72.7-57.7 121-124.7 143.2-170.3-22.1-45.6-70.5-112.6-143.2-170.3-59.9-47.6-157.3-104.2-281-104.2-123.7 0-221.1 56.7-281 104.2-72.8 57.6-121.1 124.7-143.2 170.3zM511 719.1c-115.2 0-208.9-93.7-208.9-208.9S395.8 301.3 511 301.3 719.9 395 719.9 510.2 626.2 719.1 511 719.1z m0-392.7c-101.4 0-183.9 82.5-183.9 183.9S409.6 694.2 511 694.2s183.9-82.5 183.9-183.9S612.4 326.4 511 326.4z m118.2 183.8c0-17.5-3.8-34.4-11.4-50.4-3-6.2-10.4-8.9-16.6-6-6.2 3-8.9 10.4-6 16.6 6 12.6 9 26 9 39.7 0 51.4-41.8 93.2-93.2 93.2s-93.2-41.8-93.2-93.2c0-51.4 41.8-93.2 93.2-93.2 13.4 0 26.4 2.9 38.7 8.5 6.3 2.9 13.7 0.1 16.6-6.2 2.9-6.3 0.1-13.7-6.2-16.6-15.6-7-32.1-10.6-49.1-10.6-65.2 0-118.2 53-118.2 118.2s53 118.2 118.2 118.2 118.2-53 118.2-118.2z" p-id="1854" fill="#ffffff"></path></svg>