<?xml version="1.0" encoding="utf-8"?>
<!-- Generator: Adobe Illustrator 21.0.0, SVG Export Plug-In . SVG Version: 6.00 Build 0)  -->
<svg version="1.1" id="图层_1" xmlns="http://www.w3.org/2000/svg" xmlns:xlink="http://www.w3.org/1999/xlink" x="0px" y="0px"
	 viewBox="0 0 1024 1024" style="enable-background:new 0 0 1024 1024;" xml:space="preserve">
<style type="text/css">
	.st0{fill:#E3E3E3;}
</style>
<g>
	<path class="st0" d="M66.8,162.3c0-48.6,39.4-88,88-88h721c35.9,0,66.8,21.5,80.5,52.3c-11-36.3-44.7-62.8-84.6-62.8H152.3
		c-48.8,0-88.3,39.5-88.3,88.3v719.4c0,9.2,1.4,18,4,26.3c-0.8-4.7-1.2-9.6-1.2-14.5V162.3z"/>
	<path class="st0" d="M956.2,126.6c2.4,8.1,3.8,16.6,3.8,25.5v719.4c0,48.8-39.5,88.3-88.3,88.3H152.3c-39.6,0-73.1-26.1-84.3-62
		c6.9,41.7,43.1,73.5,86.8,73.5h721c48.6,0,88-39.4,88-88v-721C963.8,149.6,961.1,137.5,956.2,126.6z"/>
	<path class="st0" d="M152.3,959.8h719.4c48.8,0,88.3-39.5,88.3-88.3V152.1c0-8.9-1.3-17.4-3.8-25.5c-13.7-30.8-44.6-52.3-80.5-52.3
		h-721c-48.6,0-88,39.4-88,88v721c0,4.9,0.4,9.8,1.2,14.5C79.2,933.7,112.7,959.8,152.3,959.8z M165.9,420.8l270.4,270.4
		l428.4-428.4l45.3,45.3L481.6,736.4l1.2,1.2l-45.3,45.3L120.7,466L165.9,420.8z"/>
</g>
</svg>
