<?xml version="1.0" standalone="no"?><!DOCTYPE svg PUBLIC "-//W3C//DTD SVG 1.1//EN" "http://www.w3.org/Graphics/SVG/1.1/DTD/svg11.dtd"><svg t="1545288107372" class="icon" style="" viewBox="0 0 1024 1024" version="1.1" xmlns="http://www.w3.org/2000/svg" p-id="2455" xmlns:xlink="http://www.w3.org/1999/xlink" width="200" height="200"><defs><style type="text/css"></style></defs><path d="M873.6 150.4c-199.68-199.68-523.456-199.68-723.136 0s-199.68 523.456 0 723.136 523.456 199.68 723.136 0c199.68-199.68 199.68-523.392 0-723.136z m-688.576 688.576C4.48 658.432 4.48 365.632 185.024 185.088s473.344-180.544 653.888 0 180.544 473.344 0 653.888-473.28 180.544-653.888 0z m479.296-483.84a218.184 218.184 0 0 0-60.672-41.728c-12.992-6.016-27.904 3.584-27.904 17.92 0 7.68 4.48 14.656 11.456 17.856a179.464 179.464 0 0 1 52.864 37.376c68.8 70.272 67.84 183.872-2.112 252.992-69.824 69.056-182.272 68.992-252.096-0.064-69.888-69.184-70.72-182.912-1.792-253.12a178.96 178.96 0 0 1 52.992-37.312 19.736 19.736 0 0 0 11.52-17.92c0-14.336-14.848-23.872-27.84-17.92a219.36 219.36 0 0 0-59.84 40.704c-88.256 84.416-90.688 223.616-5.248 310.912 86.912 88.832 230.464 87.744 315.904-3.328C751.872 576 748.544 436.928 664.32 355.136zM511.68 384.64a19.464 19.464 0 0 1-19.392-19.392V211.904a19.464 19.464 0 0 1 19.392-19.392 19.464 19.464 0 0 1 19.392 19.392v153.28a19.44 19.44 0 0 1-19.392 19.456z" fill="#888888" p-id="2456"></path></svg>