<?xml version="1.0" standalone="no"?><!DOCTYPE svg PUBLIC "-//W3C//DTD SVG 1.1//EN" "http://www.w3.org/Graphics/SVG/1.1/DTD/svg11.dtd"><svg t="1544608542884" class="icon" style="" viewBox="0 0 1024 1024" version="1.1" xmlns="http://www.w3.org/2000/svg" p-id="29462" xmlns:xlink="http://www.w3.org/1999/xlink" width="200" height="200"><defs><style type="text/css"></style></defs><path d="M404.19328 99.6352H106.14784A44.6464 44.6464 0 0 0 61.44 144.19968v296.87808c0 24.59648 20.00896 44.544 44.70784 44.544h298.04544a44.6464 44.6464 0 0 0 44.70784-44.544V144.19968a44.6464 44.6464 0 0 0-44.70784-44.56448z m458.17856 456.4992H564.3264a44.60544 44.60544 0 0 0-44.70784 44.50304v296.91904c0 24.576 20.00896 44.52352 44.70784 44.52352h298.04544a44.62592 44.62592 0 0 0 44.70784-44.52352V600.63744c0-24.576-20.02944-44.52352-44.70784-44.52352z m67.39968-342.8352L688.9472 86.6304a40.96 40.96 0 0 0-55.1936 16.95744l-127.1808 240.0256a40.6528 40.6528 0 0 0 17.08032 54.9888l240.86528 126.64832a40.96 40.96 0 0 0 55.23456-16.97792l127.13984-239.96416a40.59136 40.59136 0 0 0-17.1008-54.9888z m-525.57824 342.8352H106.14784A44.62592 44.62592 0 0 0 61.44 600.61696v296.91904C61.44 922.13248 81.44896 942.08 106.14784 942.08h298.04544a44.6464 44.6464 0 0 0 44.70784-44.52352V600.63744a44.6464 44.6464 0 0 0-44.70784-44.52352z" fill="#90a3ad" p-id="29463"></path></svg>