<?xml version="1.0" standalone="no"?><!DOCTYPE svg PUBLIC "-//W3C//DTD SVG 1.1//EN" "http://www.w3.org/Graphics/SVG/1.1/DTD/svg11.dtd"><svg t="1542360484191" class="icon" style="" viewBox="0 0 1024 1024" version="1.1" xmlns="http://www.w3.org/2000/svg" p-id="7608" xmlns:xlink="http://www.w3.org/1999/xlink" width="200" height="200"><defs><style type="text/css"></style></defs><path d="M887.466667 756.053333V682.666667c0-37.546667-30.72-68.266667-68.266667-68.266667H546.133333v-71.68c116.053333-17.066667 204.8-116.053333 204.8-235.52 0-131.413333-107.52-238.933333-238.933333-238.933333s-238.933333 107.52-238.933333 238.933333c0 121.173333 88.746667 220.16 204.8 235.52V614.4H221.866667c-37.546667 0-68.266667 30.72-68.266667 68.266667v69.973333c-47.786667 8.533333-85.333333 49.493333-85.333333 100.693333 0 56.32 46.08 102.4 102.4 102.4s102.4-46.08 102.4-102.4c0-44.373333-29.013333-81.92-68.266667-97.28V699.733333c0-18.773333 15.36-34.133333 34.133333-34.133333h238.933334v90.453333c-39.253333 13.653333-68.266667 51.2-68.266667 97.28 0 56.32 46.08 102.4 102.4 102.4s102.4-46.08 102.4-102.4c0-44.373333-29.013333-81.92-68.266667-97.28V665.6h256c18.773333 0 34.133333 15.36 34.133334 34.133333v52.906667c-47.786667 8.533333-85.333333 49.493333-85.333334 100.693333 0 56.32 46.08 102.4 102.4 102.4s102.4-46.08 102.4-102.4c0-44.373333-29.013333-81.92-68.266666-97.28z" p-id="7609" fill="#e8c260"></path></svg>