<?xml version="1.0" encoding="utf-8"?>
<!-- Generator: Adobe Illustrator 21.0.0, SVG Export Plug-In . SVG Version: 6.00 Build 0)  -->
<svg version="1.1" id="图层_1" xmlns="http://www.w3.org/2000/svg" xmlns:xlink="http://www.w3.org/1999/xlink" x="0px" y="0px"
	 viewBox="0 0 200 200" style="enable-background:new 0 0 200 200;" xml:space="preserve">
<style type="text/css">
	.st0{fill:#90A3AD;}
</style>
<path class="st0" d="M32.9,63.3c45,0,89.6,0,135.1,0c0,2,0,4,0,6c0,38,0,75.9,0,113.9c0,11.7-4.7,16.4-16.3,16.4
	c-34.6,0-69.2,0-103.8,0c-10.6,0-15.4-4.6-15.4-14.9c-0.1-38.9,0-77.8,0-116.7C32.5,66.5,32.7,65,32.9,63.3z M68.7,174.6
	c0-29.6,0-58.6,0-87.6c-4.1,0-7.8,0-11.7,0c0,29.3,0,58.3,0,87.6C61,174.6,64.7,174.6,68.7,174.6z M93.4,174.7c0-29.6,0-58.6,0-87.6
	c-4.1,0-7.8,0-11.7,0c0,29.4,0,58.4,0,87.6C85.7,174.7,89.4,174.7,93.4,174.7z M118.1,174.7c0-29.6,0-58.6,0-87.6
	c-4.1,0-7.8,0-11.8,0c0,29.3,0,58.4,0,87.6C110.4,174.7,114.1,174.7,118.1,174.7z M142.9,174.7c0-29.6,0-58.6,0-87.5
	c-4.3,0-8.1,0-11.8,0c0,29.5,0,58.4,0,87.5C135.2,174.7,138.9,174.7,142.9,174.7z M19.7,49.1c0.2-4.6-0.1-9.1,0.8-13.5
	c1.1-5.7,5-9.4,10.9-9.8c6.9-0.5,13.9-0.4,20.8-0.5c2,0,4,0,6.6,0c0-3.9-0.1-7,0-10.2C59,6.6,63.9,0.8,72.2,0.6
	c19.7-0.3,39.5-0.3,59.2,0c8.3,0.1,12.8,5.5,13.1,13.9c0.1,3.3,0,6.7,0,10.7c5.6,0,10.4,0.2,15.2,0c18-1.1,22.3,8.2,19.9,23.9
	C126.7,49.1,73.6,49.1,19.7,49.1z M71.2,25.7c19.8,0,38.9,0,58.1,0c6,0,3.2-4.8,3.7-7.6c0.6-3.4-0.2-5.7-4.6-5.6
	c-14.1,0.2-28.2,0.1-42.3,0.1c-4.8,0-9.7,0-14.8,0C71.2,17.1,71.2,21,71.2,25.7z"/>
</svg>
