<?xml version="1.0" standalone="no"?><!DOCTYPE svg PUBLIC "-//W3C//DTD SVG 1.1//EN" "http://www.w3.org/Graphics/SVG/1.1/DTD/svg11.dtd"><svg t="1544604805432" class="icon" style="" viewBox="0 0 1181 1024" version="1.1" xmlns="http://www.w3.org/2000/svg" p-id="24812" xmlns:xlink="http://www.w3.org/1999/xlink" width="230.6640625" height="200"><defs><style type="text/css"></style></defs><path d="M0 78.77v866.46C0 992.493 31.508 1024 78.77 1024h1024c47.26 0 78.768-31.508 78.768-78.77V78.77c0-47.262-31.507-78.77-78.769-78.77h-1024C31.508 0 0 31.508 0 78.77z m78.77 0h1024v236.307h-1024V78.769z m1024 866.46h-1024V708.924h1024v236.308z m-1024-315.076V393.846h1024v236.308h-1024z m827.076-472.616h78.77c23.63 0 39.384 15.754 39.384 39.385s-15.754 39.385-39.385 39.385h-78.769c-23.63 0-39.384-15.754-39.384-39.385s15.753-39.385 39.384-39.385zM1024 512c0 23.63-15.754 39.385-39.385 39.385h-78.769c-23.63 0-39.384-15.754-39.384-39.385s15.753-39.385 39.384-39.385h78.77c23.63 0 39.384 15.754 39.384 39.385zM866.462 827.077c0-23.63 15.753-39.385 39.384-39.385h78.77c23.63 0 39.384 15.754 39.384 39.385s-15.754 39.385-39.385 39.385h-78.769c-23.63 0-39.384-15.754-39.384-39.385z" p-id="24813" fill="#ffffff"></path></svg>