<?xml version="1.0" standalone="no"?><!DOCTYPE svg PUBLIC "-//W3C//DTD SVG 1.1//EN" "http://www.w3.org/Graphics/SVG/1.1/DTD/svg11.dtd"><svg t="1544609067654" class="icon" style="" viewBox="0 0 1024 1024" version="1.1" xmlns="http://www.w3.org/2000/svg" p-id="30349" xmlns:xlink="http://www.w3.org/1999/xlink" width="200" height="200"><defs><style type="text/css"></style></defs><path d="M61.71874999 874.33333334c0 41.4375 33.5625 75 75.00000002 75h750c41.4375 0 75-33.5625 75-75V668.08333334c0-41.4375-33.5625-75-75-75h-324.375V396.20833334c0-25.875-21-46.875-46.875-46.875s-46.875 21-46.875 46.875v196.875h-331.875c-41.4375 0-75 33.5625-75 75v206.25z m93.75000002-103.125c0-25.875 21-46.875 46.875-46.875s46.875 21 46.875 46.875-21 46.875-46.875 46.875-46.875-21-46.875-46.875z m168.74999998 0c0-25.875 21-46.875 46.87500002-46.875s46.875 21 46.875 46.875-21 46.875-46.875 46.875-46.875-21-46.875-46.875z m191.25000002-571.875c-108.75 0-196.875 88.125-196.87500002 196.875 0 25.875 21 46.875 46.87500002 46.875s46.875-21 46.875-46.875c0-57 46.125-103.125 103.12499998-103.125s103.125 46.125 103.125 103.125c0 25.875 21 46.875 46.875 46.875s46.875-21 46.875-46.875c0-108.75-88.125-196.875-196.87499998-196.875z m-2e-8-150c-191.625 0-346.875 155.25-346.87499998 346.875 0 25.875 21 46.875 46.87499998 46.875s46.875-21 46.875-46.875c0-139.875 113.25-253.125 253.12500002-253.125s253.125 113.25 253.12499998 253.125c0 25.875 21 46.875 46.87500002 46.875s46.875-21 46.875-46.875c0-191.625-155.25-346.875-346.87500002-346.875z" p-id="30350" fill="#90a3ad"></path></svg>