<?xml version="1.0" standalone="no"?><!DOCTYPE svg PUBLIC "-//W3C//DTD SVG 1.1//EN" "http://www.w3.org/Graphics/SVG/1.1/DTD/svg11.dtd"><svg t="1543814032386" class="icon" style="" viewBox="0 0 1024 1024" version="1.1" xmlns="http://www.w3.org/2000/svg" p-id="2810" xmlns:xlink="http://www.w3.org/1999/xlink" width="200" height="200"><defs><style type="text/css"></style></defs><path d="M382.302 347.97c-8.907 0-16.096 7.211-16.096 16.096v589.496c0 8.885 7.19 16.096 16.096 16.096 8.864 0 16.097-7.211 16.097-16.096V364.066c0-8.885-7.233-16.096-16.097-16.096zM89.24 592.207c-8.885 0-16.096 7.211-16.096 16.096v345.259c0 8.885 7.211 16.096 16.096 16.096 8.886 0 16.097-7.211 16.097-16.096V608.303c0-8.885-7.211-16.096-16.097-16.096z m879.146-199.94c-8.885 0-16.075 7.212-16.075 16.097v545.198c0 8.885 7.19 16.096 16.075 16.096 8.885 0 16.118-7.211 16.118-16.096V408.364c0-8.885-7.233-16.097-16.118-16.097z m-4.936-182.448c8.885-0.107 16.032-7.383 15.946-16.268l-1.202-104.498c-0.043-4.465-1.974-8.714-5.28-11.74-3.305-3.005-7.662-4.464-12.19-4.12l-104.133 8.82c-8.864 0.751-15.431 8.52-14.702 17.384 0.751 8.864 8.67 15.238 17.406 14.702l63.291-5.366L675.537 380.7 392.819 103.733c-6.139-6.01-15.86-6.182-22.15-0.387L78.896 370.204c-6.568 6.01-7.018 16.182-1.01 22.75 6.01 6.567 16.183 6.996 22.73 1.008l280.55-256.577L664.956 415.38c3.005 2.962 7.061 4.593 11.267 4.593h0.473a16.178 16.178 0 0 0 11.439-5.258l258.337-284.37 0.709 63.57c0.107 8.82 7.275 15.903 16.117 15.903h0.15zM675.344 591.584c-8.886 0-16.097 7.212-16.097 16.097v345.88c0 8.886 7.211 16.097 16.097 16.097 8.885 0 16.096-7.211 16.096-16.096V607.68c0-8.885-7.211-16.097-16.096-16.097z" fill="#ffffff" p-id="2811"></path></svg>