<?xml version="1.0" encoding="utf-8"?>
<!-- Generator: Adobe Illustrator 21.0.0, SVG Export Plug-In . SVG Version: 6.00 Build 0)  -->
<svg version="1.1" id="图层_1" xmlns="http://www.w3.org/2000/svg" xmlns:xlink="http://www.w3.org/1999/xlink" x="0px" y="0px"
	 viewBox="0 0 200 200" style="enable-background:new 0 0 200 200;" xml:space="preserve">
<style type="text/css">
	.st0{fill:#FFFFFF;}
</style>
<path class="st0" d="M200,155.9V68.6c0-15-80.2-43.6-81.6-43.6H18.7C8.3,25-0.1,33.4-0.1,43.8l0,112.1c0.1,10.4,8.5,18.7,18.9,18.6
	c0.1,0,0.3,0,0.4,0h162C191.5,174.6,199.9,166.3,200,155.9z M19.3,162.1c-3.4,0-6.2-2.7-6.3-6.1V43.8c0-3.5,2.8-6.3,6.3-6.3h99.1
	c24.2,8.2,47.4,19.2,69.1,32.8v17h-18.6c-3.5,0-6.3,2.8-6.3,6.3s2.8,6.3,6.3,6.3h18.6v12.4h-18.6c-3.4-0.5-6.6,1.9-7.1,5.3
	s1.9,6.6,5.3,7.1c0.6,0.1,1.2,0.1,1.8,0h18.6v12.5h-18.6c-3.5,0-6.3,2.8-6.3,6.3s2.8,6.3,6.3,6.3h18.6v6.3c0,3.4-2.7,6.1-6.1,6.1
	h-0.1L19.3,162.1z"/>
<path class="st0" d="M100.3,130.9V68.6c0-10.4-8.4-18.8-18.8-18.8l0,0H56.6c-10.4,0-18.8,8.4-18.8,18.8v62.3
	c0,10.4,8.4,18.8,18.8,18.8h24.9C91.9,149.7,100.3,141.3,100.3,130.9z M56.7,137.2c-3.4-0.1-6.2-2.8-6.3-6.3V68.6
	c0.1-3.4,2.8-6.2,6.3-6.3h24.9c3.4,0.1,6.2,2.8,6.3,6.3v62.3c-0.1,3.4-2.8,6.2-6.3,6.3C81.6,137.2,56.7,137.2,56.7,137.2z"/>
</svg>
