<?xml version="1.0" standalone="no"?><!DOCTYPE svg PUBLIC "-//W3C//DTD SVG 1.1//EN" "http://www.w3.org/Graphics/SVG/1.1/DTD/svg11.dtd"><svg t="1543297639679" class="icon" style="" viewBox="0 0 1024 1024" version="1.1" xmlns="http://www.w3.org/2000/svg" p-id="15802" xmlns:xlink="http://www.w3.org/1999/xlink" width="200" height="200"><defs><style type="text/css"></style></defs><path d="M947.479209 910.363893 677.334559 637.613906c50.363038-60.511165 80.684624-138.399093 80.684624-223.402069 0-192.614879-155.611104-348.758102-347.57209-348.758102-191.956893 0-347.567997 156.143223-347.567997 348.758102 0 192.610786 155.611104 348.755032 347.567997 348.755032 87.22355 0 166.937057-32.243355 227.962945-85.492116l269.744537 272.344758c10.862395 10.896164 28.466332 10.896164 39.324634 0C958.337511 938.926416 958.337511 921.255964 947.479209 910.363893zM410.447093 707.629539c-161.496138 0-292.417933-131.367957-292.417933-293.418726s130.920772-293.421796 292.417933-293.421796c161.500231 0 292.425096 131.371026 292.425096 293.421796S571.947324 707.629539 410.447093 707.629539z" p-id="15803" fill="#ffffff"></path></svg>