<?xml version="1.0" standalone="no"?><!DOCTYPE svg PUBLIC "-//W3C//DTD SVG 1.1//EN" "http://www.w3.org/Graphics/SVG/1.1/DTD/svg11.dtd"><svg t="1543297083950" class="icon" style="" viewBox="0 0 1024 1024" version="1.1" xmlns="http://www.w3.org/2000/svg" p-id="9121" xmlns:xlink="http://www.w3.org/1999/xlink" width="200" height="200"><defs><style type="text/css"></style></defs><path d="M896.0952 538.1161h-82.829312v-80.93184c0-34.5016-28.5819-62.4415-63.9007-62.4415-35.2594 0-63.8986 27.9398-63.8986 62.4415v80.93184h-82.80064c-35.2891 0-63.8986 27.9398-63.8986 62.4138 0 34.473 28.6095 62.4425 63.8986 62.4425h82.80064v80.93184c0 34.474 28.6403 62.4425 63.8986 62.4425 35.3188 0 63.9007-27.9685 63.9007-62.4425v-80.93184h82.829312c35.2881 0 63.8986-27.9685 63.8986-62.4425C959.9949 566.0559 931.3833 538.1161 896.0952 538.1161zM398.0452 413.6428c92.1917 0 166.912-72.9713 166.912-163.0618s-74.7203-163.1191-166.912-163.1191c-92.16 0-166.911 73.0286-166.911 163.1191S305.8852 413.6428 398.0452 413.6428zM590.6217 733.697c0 0-155.3029 15.5156-142.7917-130.7761 5.3084-61.9459 47.3344-88.6313 87.4353-100.0059-42.58-27.3562-90.1192-42.7264-140.2829-42.7264-182.6294 0-330.6998 202.5492-330.6998 452.3479 0 8.3415 0.2038 16.6533 0.554 24.8781h660.293632c0.3492-8.2248 0.5243-16.5366 0.5243-24.8781 0-11.7821-0.4076-23.5356-1.108-35.1416C676.4524 875.6726 589.5127 855.6943 590.6217 733.697z" p-id="9122" fill="#ffffff"></path></svg>