<?xml version="1.0" standalone="no"?><!DOCTYPE svg PUBLIC "-//W3C//DTD SVG 1.1//EN" "http://www.w3.org/Graphics/SVG/1.1/DTD/svg11.dtd"><svg t="1543982770500" class="icon" style="" viewBox="0 0 1024 1024" version="1.1" xmlns="http://www.w3.org/2000/svg" p-id="1740" xmlns:xlink="http://www.w3.org/1999/xlink" width="200" height="200"><defs><style type="text/css"></style></defs><path d="M543.6 203.4h1.4c88.4 0 173.6 27.7 240 77.9 31.4 23.8 57.3 51.5 76.8 82.4 19.6 30.9 31.9 63.7 36.7 97.6 0.4 3.1 0.8 6.4 1.1 9.6v0.8c0.1 1.3 0.1 2.7 0.1 3.9 0 32.4-21.2 59.8-46.3 59.8H790c-45 0-87.1 23.3-112.6 62.2-23.9 36.4-30.6 81.7-18.4 124.6l1.1 3.8 0.2 0.8c2.2 8.5 1.1 17.7-3 24.9-2.7 4.7-6.4 7.9-9.8 8.5l-2.3 0.4-2.3 0.5c-32 7.1-64.7 10.8-98 10.8-49 0-96.5-7.7-141.1-23-42.7-14.6-80.9-35.4-113.5-61.7-32-25.9-57.1-55.8-74.5-88.8-17.6-33.6-26.6-69.2-26.6-105.8 0-36.7 9-73 26.8-107.6 17.6-34.3 42.9-65.4 75-92.4 33-27.7 71.2-49.4 113.4-64.7 45.2-16.4 92-24.5 139.2-24.5m0-71.1c-55.3 0-110.3 9.6-163 28.4-50.4 18.2-95.8 44.1-135.1 77.1C206 271 174.9 309.5 153 352.2c-23 44.8-34.6 91.9-34.6 140.1 0 48.2 11.7 94.9 34.7 138.8 21.9 41.7 53.1 79.1 92.7 111.1 39.2 31.6 84.6 56.4 135.1 73.7 52 17.8 107.3 26.8 164.1 26.8h0.7c37.9 0 75.6-4.2 112.8-12.5 25-3.9 47.2-19.8 60.7-43.5s17-52.9 9.5-79.7l-0.2-0.7-0.2-0.6c-0.4-1.3-0.7-2.4-1-3.5-6.4-22.3-2.8-46.7 9.6-65.7 12.4-18.9 32.2-30.1 53.2-30.2h63.3c64.8 0 117.4-58.6 117.4-130.8 0-2.5-0.1-5.2-0.2-7.9v-0.9c-0.5-5.3-1.1-10.5-1.8-15.6-6.2-43.8-22-86.2-47-125.6-24.1-38.1-55.7-72.1-94-101.1-78.7-59.5-179.1-92.3-282.8-92.3-0.4 0.2-0.9 0.2-1.4 0.2z" p-id="1741" fill="#888888"></path><path d="M426.2 300.9c-29.4 0-53.3 23.9-53.3 53.3s23.8 53.3 53.3 53.3c29.4 0 53.3-23.9 53.3-53.3s-23.9-53.3-53.3-53.3z m197.3-17.7c-29.4 0-53.3 23.9-53.3 53.3s23.8 53.3 53.3 53.3c29.4 0 53.3-23.9 53.3-53.3s-23.8-53.3-53.3-53.3zM319.7 443c-29.4 0-53.3 23.9-53.3 53.3s23.8 53.3 53.3 53.3c29.4 0 53.3-23.9 53.3-53.3-0.1-29.4-23.9-53.3-53.3-53.3z" p-id="1742" fill="#888888"></path></svg>