<?xml version="1.0" standalone="no"?><!DOCTYPE svg PUBLIC "-//W3C//DTD SVG 1.1//EN" "http://www.w3.org/Graphics/SVG/1.1/DTD/svg11.dtd"><svg t="1543297577905" class="icon" style="" viewBox="0 0 1024 1024" version="1.1" xmlns="http://www.w3.org/2000/svg" p-id="14994" xmlns:xlink="http://www.w3.org/1999/xlink" width="200" height="200"><defs><style type="text/css"></style></defs><path d="M504.48896 940.38016c-54.07744 0-106.58816-10.17856-155.9808-30.35648-47.744-19.38944-90.55744-47.19104-127.35488-82.62144S155.47904 750.6944 135.2704 704.75776c-20.89472-47.54944-31.49312-98.07872-31.49312-150.1696 0-62.32576 15.872-124.20608 45.87008-179.02592 29.0048-52.96128 71.13216-99.46624 121.86624-134.47168 14.09536-9.72288 33.67936-6.57408 43.7504 6.96832 10.07104 13.5424 6.8608 32.36352-7.23456 42.03008-42.88 29.66016-78.45888 68.87424-102.90688 113.57696-25.66656 46.86336-38.67136 97.63328-38.67136 150.92736 0 86.94272 35.1744 168.69376 99.04128 230.15424 63.83616 61.48096 148.71552 95.34976 238.99648 95.34976 90.24512 0 175.16032-33.8688 239.0272-95.34976 63.86176-61.46048 99.00544-143.21152 99.00544-230.15424 0-53.22752-12.96896-104.0896-38.66624-150.92736-24.44288-44.672-60.0576-83.91168-102.93248-113.5104-14.06464-9.67168-17.34656-28.4928-7.23968-42.03008s29.65504-16.72704 43.71968-6.9632c50.76992 35.00544 92.95872 81.5104 121.92768 134.47168 30.0288 54.82496 45.90592 116.69504 45.90592 179.02592 0 52.09088-10.60352 102.61504-31.52896 150.20032-20.1728 45.93664-49.08544 87.21408-85.87776 122.64448s-79.61088 63.20128-127.35488 82.68288c-49.42848 20.04992-101.9136 30.19264-155.98592 30.19264z m9.4208-418.6368c-17.31072 0-31.33952-13.45024-31.33952-30.14144v-357.3248c0-16.63488 14.0288-30.17728 31.33952-30.17728 17.3056 0 31.37024 13.5424 31.37024 30.17728v357.32992c0 16.68608-14.06464 30.13632-31.37024 30.13632z" p-id="14995" fill="#ffffff"></path></svg>