<?xml version="1.0" encoding="utf-8"?>
<!-- Generator: Adobe Illustrator 21.0.0, SVG Export Plug-In . SVG Version: 6.00 Build 0)  -->
<svg version="1.1" id="图层_1" xmlns="http://www.w3.org/2000/svg" xmlns:xlink="http://www.w3.org/1999/xlink" x="0px" y="0px"
	 viewBox="0 0 200 200" style="enable-background:new 0 0 200 200;" xml:space="preserve">
<style type="text/css">
	.st0{fill:#90A3AD;}
</style>
<path class="st0" d="M119.8,31.3c19.1,1.9,34.4,13.4,37.7,33.1h-11L164.3,91l17.9-26.6h-12.3c-3.3-26.6-23.4-43.8-48.7-46.3
	c-3.5-0.3-6.8,2.7-6.8,6.6C114.5,28,116.8,31,119.8,31.3L119.8,31.3z M92.2,17.8H30.2c-3.5,0-6.3,3-6.3,6.9v59.1
	c0,3.8,2.8,6.8,6.3,6.8h62c3.5,0,6.3-3,6.3-6.9V24.7C98.5,20.9,95.7,17.9,92.2,17.8L92.2,17.8C92.2,17.9,92.2,17.8,92.2,17.8z
	 M80.1,168.5c-21.3-1.9-37.7-16.2-38.4-39.7h11.8l-17.8-26.6l-17.8,26.5h11.8c0.5,30.4,21.8,50.1,49.2,52.9c3.5,0.3,6.8-2.7,6.8-6.6
	C85.7,171.8,83.4,168.9,80.1,168.5C80.1,168.4,80.1,168.5,80.1,168.5z M170.1,109c3.3,0,6.3,3,6.3,6.9v59.4c0,3.8-2.8,6.8-6.3,6.8
	h-62c-3.5,0-6.3-3-6.3-6.9v-59.4c0-3.8,2.7-6.8,6.3-6.8L170.1,109L170.1,109L170.1,109z M160.9,120h-43.7c-2.5,0-4.4,2.1-4.4,4.8
	v41.9c0,2.7,1.9,4.8,4.4,4.8h43.8c2.5,0,4.4-2.1,4.4-4.8v-41.9C165.3,122.2,163.2,120,160.9,120L160.9,120L160.9,120z M83.1,28.7
	L83.1,28.7c2.3,0,4.4,2.1,4.4,4.8v41.9c0,2.7-1.9,4.8-4.4,4.8H39.3c-2.5,0-4.4-2.1-4.4-4.8V33.5c0-2.7,1.9-4.8,4.4-4.8
	C39.3,28.7,83.1,28.7,83.1,28.7z"/>
</svg>
