<?xml version="1.0" standalone="no"?><!DOCTYPE svg PUBLIC "-//W3C//DTD SVG 1.1//EN" "http://www.w3.org/Graphics/SVG/1.1/DTD/svg11.dtd"><svg t="1543819251613" class="icon" style="" viewBox="0 0 1024 1024" version="1.1" xmlns="http://www.w3.org/2000/svg" p-id="13505" xmlns:xlink="http://www.w3.org/1999/xlink" width="200" height="200"><defs><style type="text/css"></style></defs><path d="M512 868.625c-224.534 0-428.945-139.723-508.678-347.74L0 512.199l3.322-8.685C83.008 295.544 287.466 155.821 512 155.821s428.992 139.723 508.678 347.693l3.322 8.685-3.322 8.685C940.945 728.902 736.534 868.625 512 868.625zM52.111 512.199C127.003 696.724 310.579 820.026 512 820.026S896.997 696.725 971.889 512.2C896.997 327.722 713.421 204.42 512 204.42S127.003 327.722 52.111 512.199z" p-id="13506" fill="#ffffff"></path><path d="M512 758.47c-137.16 0-244.61-108.162-244.61-246.271 0-138.062 107.45-246.223 244.61-246.223s244.61 108.162 244.61 246.223c0 138.109-107.45 246.271-244.61 246.271z m0-443.895c-109.918 0-196.01 86.805-196.01 197.624 0 110.867 86.093 197.672 196.01 197.672s196.01-86.805 196.01-197.672c0-110.819-86.092-197.624-196.01-197.624z" p-id="13507" fill="#ffffff"></path></svg>