<?xml version="1.0" standalone="no"?><!DOCTYPE svg PUBLIC "-//W3C//DTD SVG 1.1//EN" "http://www.w3.org/Graphics/SVG/1.1/DTD/svg11.dtd"><svg t="1543809996936" class="icon" style="" viewBox="0 0 1024 1024" version="1.1" xmlns="http://www.w3.org/2000/svg" p-id="4992" xmlns:xlink="http://www.w3.org/1999/xlink" width="200" height="200"><defs><style type="text/css"></style></defs><path d="M870.4 940.8c-38.4 0-70.4-32-70.4-70.4 0-38.4 32-70.4 70.4-70.4 38.4 0 70.4 32 70.4 70.4 0 38.4-32 70.4-70.4 70.4z m0-102.4c-12.8 0-25.6 12.8-25.6 25.6s12.8 25.6 25.6 25.6 25.6-12.8 25.6-25.6-12.8-25.6-25.6-25.6z m108.8-134.4l-96-89.6v-12.8s12.8-128-57.6-179.2c-6.4 6.4-19.2 12.8-25.6 19.2l-256 249.6-32-32 256-256c25.6-6.4 38.4-19.2 57.6-19.2h12.8c89.6 51.2 89.6 172.8 89.6 211.2l25.6 25.6c19.2-70.4 51.2-224-25.6-294.4L793.6 192h-6.4c-12.8 0-25.6 0-38.4-12.8-19.2-25.6-25.6-44.8-32-51.2v-6.4c0-12.8-19.2-25.6-32-38.4l-6.4-6.4-6.4-12.8-6.4-6.4-6.4-6.4-12.8 12.8-89.6 83.2-12.8 12.8 6.4 6.4 25.6 19.2c12.8 12.8 32 32 44.8 32 19.2 6.4 64 19.2 83.2 57.6 19.2 44.8-6.4 83.2-19.2 102.4 0 0 0 6.4-6.4 6.4L460.8 614.4l-32-32 224-224v-6.4c12.8-19.2 19.2-32 12.8-51.2-12.8-19.2-38.4-25.6-51.2-32-25.6 0-51.2-25.6-70.4-44.8l-12.8-19.2-6.4-6.4c-12.8-12.8-25.6-25.6-25.6-38.4 0-19.2 12.8-32 25.6-44.8L608 32c19.2-19.2 32-32 51.2-32 19.2 0 32 12.8 38.4 25.6l6.4 6.4 6.4 6.4 6.4 6.4c19.2 19.2 38.4 38.4 44.8 64v6.4c6.4 0 6.4 12.8 19.2 32h6.4c12.8 0 25.6 0 38.4 12.8l140.8 134.4c25.6 25.6 44.8 64 51.2 108.8 6.4 38.4 6.4 76.8 0 121.6-6.4 76.8-32 140.8-32 140.8l-6.4 38.4zM249.6 486.4C121.6 486.4 0 364.8 0 236.8v-6.4l44.8-44.8 19.2 12.8c12.8 12.8 25.6 25.6 32 38.4 19.2 25.6 32 38.4 44.8 38.4H179.2c12.8 0 38.4-12.8 64-38.4 19.2-19.2 38.4-44.8 38.4-64v-12.8c0-19.2 0-25.6-6.4-32-6.4 6.4-19.2-12.8-51.2-38.4-6.4-6.4-12.8-19.2-25.6-25.6L179.2 44.8l44.8-44.8h6.4c57.6 0 121.6 25.6 172.8 70.4 51.2 57.6 83.2 121.6 83.2 179.2 0 25.6-6.4 51.2-19.2 76.8l-44.8-12.8c6.4-19.2 12.8-44.8 12.8-57.6 0-51.2-25.6-102.4-64-140.8-32-38.4-76.8-64-121.6-64 6.4 0 6.4 6.4 12.8 6.4 32 32 44.8 44.8 51.2 57.6 12.8 19.2 12.8 32 12.8 51.2v12.8c0 38.4-32 76.8-51.2 96-32 32-64 51.2-96 51.2h-12.8c-19.2 0-32 0-51.2-6.4L64 268.8l-19.2-19.2c6.4 96 102.4 185.6 204.8 185.6 12.8 0 32-6.4 57.6-12.8l19.2 38.4c-32 19.2-57.6 25.6-76.8 25.6z m0 0" p-id="4993" fill="#ffffff"></path><path d="M876.8 1004.8c-19.2 0-38.4-6.4-57.6-25.6l-204.8-204.8c-32-32-32-83.2 0-115.2l51.2-51.2c32-32 83.2-32 115.2 0l204.8 204.8c32 32 32 83.2 0 115.2l-51.2 51.2c-19.2 19.2-38.4 25.6-57.6 25.6z m-153.6-371.2c-6.4 0-19.2 6.4-25.6 12.8l-51.2 51.2c-12.8 12.8-12.8 32 0 51.2l204.8 204.8c6.4 6.4 12.8 12.8 25.6 12.8 6.4 0 19.2-6.4 25.6-12.8l51.2-51.2c12.8-12.8 12.8-32 0-51.2l-204.8-204.8c-6.4-6.4-19.2-12.8-25.6-12.8zM230.4 1024c-19.2 0-44.8-6.4-57.6-25.6l-51.2-51.2c-32-32-32-83.2 0-115.2l249.6-243.2c32-32 83.2-32 115.2 0l-32 32c-12.8-12.8-32-12.8-51.2 0l-249.6 243.2c-12.8 12.8-12.8 38.4 0 51.2l51.2 51.2c12.8 12.8 38.4 12.8 51.2 0l249.6-243.2c12.8-12.8 19.2-32 6.4-51.2l32-32c32 32 32 76.8-6.4 115.2l-249.6 243.2c-12.8 19.2-38.4 25.6-57.6 25.6z m179.2-480c-25.6 0-44.8-12.8-57.6-25.6l-57.6-57.6c-6.4-6.4-6.4-25.6 0-32 6.4-6.4 25.6-6.4 32 0l57.6 57.6c6.4 6.4 19.2 12.8 25.6 12.8s19.2-6.4 25.6-12.8l51.2-51.2c12.8-12.8 12.8-38.4 0-51.2l-57.6-57.6c-6.4-6.4-6.4-19.2 0-32 6.4-6.4 25.6-6.4 32 0l57.6 57.6c32 32 32 83.2 0 115.2l-51.2 51.2c-12.8 12.8-38.4 25.6-57.6 25.6z m0 0" p-id="4994" fill="#ffffff"></path></svg>