<?xml version="1.0" standalone="no"?><!DOCTYPE svg PUBLIC "-//W3C//DTD SVG 1.1//EN" "http://www.w3.org/Graphics/SVG/1.1/DTD/svg11.dtd"><svg t="1543298093896" class="icon" style="" viewBox="0 0 1024 1024" version="1.1" xmlns="http://www.w3.org/2000/svg" p-id="23694" xmlns:xlink="http://www.w3.org/1999/xlink" width="200" height="200"><defs><style type="text/css"></style></defs><path d="M863 669h-30v-96c0-19.9-16.1-36-36-36H549v-73h25c39.8 0 72-32.2 72-72V266c0-39.8-32.2-72-72-72H448c-39.8 0-72 32.2-72 72v126c0 39.8 32.2 72 72 72h29v73H229c-19.9 0-36 16.1-36 36v96h-36c-39.8 0-72 32.2-72 72v126c0 39.8 32.2 72 72 72h126c39.8 0 72-32.2 72-72V741c0-39.8-32.2-72-72-72h-18v-60h496v60h-24c-39.8 0-72 32.2-72 72v126c0 39.8 32.2 72 72 72h126c39.8 0 72-32.2 72-72V741c0-39.8-32.2-72-72-72zM448 266h126v126H448V266zM283 867H157V741h126v126z m580 0H737V741h126v126z" p-id="23695" fill="#ffffff"></path></svg>