<?xml version="1.0" standalone="no"?><!DOCTYPE svg PUBLIC "-//W3C//DTD SVG 1.1//EN" "http://www.w3.org/Graphics/SVG/1.1/DTD/svg11.dtd"><svg t="1543982615210" class="icon" style="" viewBox="0 0 1024 1024" version="1.1" xmlns="http://www.w3.org/2000/svg" p-id="2502" xmlns:xlink="http://www.w3.org/1999/xlink" width="200" height="200"><defs><style type="text/css"></style></defs><path d="M927.142 267.264l-18.854 11.204c29.636 50.116 49.092 105.412 58.007 162.756-44.454-54.875-139.686-98.485-262.566-120.953-22.468-123.12-66.259-218.413-121.254-262.807a454.234 454.234 0 0 1 189.079 74.993 71.56 71.56 0 0 0 55.477 116.435 71.56 71.56 0 0 0 0-142.998c-14.276 0-27.528 4.276-38.732 11.505A477.365 477.365 0 0 0 512 30.118C246.302 30.118 30.118 246.302 30.118 512S246.302 993.882 512 993.882 993.882 777.698 993.882 512a481.16 481.16 0 0 0-66.74-244.736z m-50.538-89.871a49.574 49.574 0 0 1-99.087 0 49.574 49.574 0 0 1 99.087 0zM680.056 316.235A1087.187 1087.187 0 0 0 512 303.646c-59.573 0-116.254 4.458-168.478 12.65C374.062 158.9 439.778 52.104 512 52.104c72.885 0 137.577 109.507 168.056 264.131zM698.428 512c0 60.657-5.12 119.025-14.215 172.634-54.453 9.096-112.7 13.915-172.273 13.915-60.717 0-119.085-5.12-172.695-14.216a1008.941 1008.941 0 0 1-10.42-86.257 71.56 71.56 0 0 0-14.276-141.613 71.56 71.56 0 0 0-7.59 142.577c2.169 28.07 5.361 55.115 9.457 81.077C161.672 649.697 52.043 584.945 52.043 512c0-72.885 109.689-137.638 264.373-167.996-3.132 19.636-5.662 39.996-7.71 60.958l21.805 2.108c2.229-23.25 5.18-45.658 8.794-67.283 53.61-9.095 111.978-14.155 172.695-14.155 60.536 0 118.784 5.06 172.333 14.155 9.035 53.49 14.095 111.677 14.095 172.213z m-18.372 195.644C649.638 862.328 584.945 971.896 512 971.896c-72.523 0-138-107.52-168.478-264.071 52.224 8.192 108.905 12.65 168.478 12.65 57.886 0 114.688-4.398 168.056-12.83z m-415.08-179.682a49.574 49.574 0 0 1 99.146 0 49.574 49.574 0 0 1-99.147 0z m176.97-470.558c-54.392 44.032-98.605 138.481-121.434 262.807C197.21 342.679 101.798 386.53 57.404 441.585a461.101 461.101 0 0 1 384.542-384.18zM57.404 582.475c44.394 55.116 139.806 98.967 263.048 121.435 22.89 123.783 67.162 218.654 121.796 262.746a461.161 461.161 0 0 1-384.844-384.18z m525.132 384c54.994-44.393 98.785-139.806 121.253-262.987a842.725 842.725 0 0 0 57.886-12.77A71.319 71.319 0 0 0 891 648.915c0-39.394-32.045-71.5-71.439-71.5a71.56 71.56 0 0 0-68.065 93.185c-14.216 3.553-28.793 6.927-43.731 9.818 8.192-52.224 12.65-108.906 12.65-168.478 0-59.332-4.398-115.893-12.53-167.996 154.624 30.418 264.192 95.111 264.192 167.996 0 28.25-16.866 56.741-48.79 82.341l13.673 17.167c11.806-9.456 21.624-19.395 29.816-29.635a461.161 461.161 0 0 1-384.24 384.662z m187.452-317.5a49.574 49.574 0 0 1 99.147 0 49.574 49.574 0 0 1-99.147 0z" fill="#888888" p-id="2503"></path><path d="M512 1005.93c-272.324 0-493.93-221.606-493.93-493.93S239.677 18.07 512 18.07c99.388 0 194.921 29.395 276.902 85.113a82.448 82.448 0 0 1 38.189-9.336c46.02 0 83.486 37.526 83.486 83.546s-37.466 83.546-83.486 83.546a83.607 83.607 0 0 1-72.343-125.169 439.477 439.477 0 0 0-135.83-58.79c42.164 50.96 75.956 133 95.171 232.99 101.256 19.397 181.85 52.406 232.63 94.69a440.56 440.56 0 0 0-48.791-120.108l-6.144-10.3 39.514-23.553 6.144 10.421A492.725 492.725 0 0 1 1005.929 512c0 272.324-221.605 493.93-493.929 493.93zM358.822 722.22C389.662 865.1 450.319 959.85 512 959.85c61.139 0 121.675-94.81 152.757-237.748-99.208 13.854-208.234 13.673-305.935 0.12zM77.04 618.978A452.668 452.668 0 0 0 405.805 947.08c-42.285-51.02-76.258-133-95.653-232.81-99.991-19.275-182.092-53.007-233.111-95.292z m637.109 94.87c-19.215 99.93-52.947 181.971-95.172 233.111a453.09 453.09 0 0 0 328.041-328.162l-2.65 2.169-9.397 7.53-28.732-36.022 9.336-7.53c28.974-23.25 44.273-48.488 44.273-72.944 0-61.079-94.75-121.555-237.688-152.696 6.746 48.85 10.18 100.11 10.18 152.696 0 52.646-3.494 104.087-10.3 153.178 5.06-1.144 9.999-2.228 14.938-3.433a83.607 83.607 0 0 1 82.462-96.377c46.08 0 83.546 37.467 83.546 83.547s-37.466 83.546-83.546 83.546c-23.853 0-46.622-10.42-62.344-28.19-13.613 3.433-28.009 6.626-42.947 9.577z m105.351-102.4a37.527 37.527 0 1 0 0.06 74.993 37.527 37.527 0 0 0-0.06-74.993z m-469.715 62.404c104.328 16.685 220.522 16.685 324.006 0.241 8.433-52.224 12.65-106.677 12.65-162.033 0-55.416-4.217-109.748-12.59-161.792a1051.106 1051.106 0 0 0-324.005 0c-3.012 18.974-5.422 38.43-7.35 57.886l-1.204 11.987-45.779-4.397 1.145-11.987c1.506-15.119 3.253-29.997 5.3-44.514C158.962 390.385 64.09 450.861 64.09 512c0 61.2 94.87 121.736 237.87 152.817a1061.466 1061.466 0 0 1-6.265-55.477 83.607 83.607 0 0 1 18.793-164.924c46.08 0 83.547 37.527 83.547 83.546a83.727 83.727 0 0 1-56.38 78.969c2.048 22.89 4.698 45.297 8.131 66.921zM314.55 490.496a37.466 37.466 0 1 0 0 74.933 37.466 37.466 0 0 0 0-74.933zM405.564 76.92A452.91 452.91 0 0 0 76.981 405.082c51.08-42.225 133.12-75.956 233.17-95.171C329.548 209.98 363.34 128 405.565 76.92zM512 64.15c-61.801 0-122.458 94.81-153.239 237.69a1156.518 1156.518 0 0 1 305.996-0.061C633.615 158.9 573.139 64.15 512 64.15z m315.03 75.777a37.527 37.527 0 1 0 0.06 74.993 37.527 37.527 0 0 0-0.06-74.993z" fill="#888888" p-id="2504"></path></svg>