<?xml version="1.0" standalone="no"?><!DOCTYPE svg PUBLIC "-//W3C//DTD SVG 1.1//EN" "http://www.w3.org/Graphics/SVG/1.1/DTD/svg11.dtd"><svg t="1543297706397" class="icon" style="" viewBox="0 0 1024 1024" version="1.1" xmlns="http://www.w3.org/2000/svg" p-id="17193" xmlns:xlink="http://www.w3.org/1999/xlink" width="200" height="200"><defs><style type="text/css"></style></defs><path d="M794.773272 957.593568l-128.987746 0c-13.075807 0-25.747407-5.522784-35.012422-15.208377-11.244089-9.738805-17.660218-23.425525-17.660218-37.790698l0-9.44c0-0.988514 0.071631-1.974981 0.213871-2.953262 0.054235-0.36839 0.11461-0.719384 0.178055-1.047866L613.504812 693.244924 420.849 693.244924l0 197.977004c0.070608 0.327458 0.141216 0.682545 0.207731 1.060145 0.201591 1.158383 0.302899 2.332115 0.302899 3.507894l0 8.804527c0 14.365172-6.415107 28.05087-17.657148 37.788651-9.260921 9.686616-21.931498 15.210423-35.010375 15.210423L231.54247 957.593568c-13.607926 0-26.680663-6.018064-36.077683-16.560164-10.197246-9.699919-15.808034-22.521946-15.839757-36.263925l-2.913353-378.536312-58.616002 0c-12.797467 0-24.802896-4.995781-34.045397-14.115486-0.582261-0.473791-1.136893-0.978281-1.670036-1.514493-19.673062-19.721157-20.342304-51.123354-1.480724-70.03303 0.216941-0.217964 0.438998-0.429789 0.665149-0.638543l396.033825-362.762047c7.895831-7.708566 18.345834-12.161994 30.259164-12.887518 0.413416-0.025583 0.829901-0.037862 1.24434-0.037862l4.853541 0c0.448208 0 0.896416 0.014326 1.343601 0.044002 11.864212 0.780783 22.26612 5.220908 30.116925 12.846586l398.027226 362.762047c0.24764 0.225127 0.490164 0.456395 0.725524 0.693802 18.86772 18.971074 18.144242 50.401923-1.609661 70.064752-0.072655 0.071631-0.145309 0.143263-0.218988 0.213871-9.375531 9.91686-21.808702 15.361873-35.148521 15.361873l-58.564837 0-1.941212 378.472867c-0.014326 13.805424-5.631254 26.65815-15.851013 36.34579C821.438585 951.581644 808.373011 957.593568 794.773272 957.593568zM654.045133 897.498888l0 7.096628c0 3.28686 2.076288 5.67321 3.817955 7.096628 0.815575 0.665149 1.577938 1.393743 2.28095 2.176572 1.144056 1.27504 3.051499 2.793626 5.641487 2.793626l128.987746 0c2.568499 0 4.527107-1.680269 5.718235-3.088338 0.597611-0.707105 1.242294-1.373277 1.928932-1.992377 1.520633-1.370207 3.333932-3.684926 3.333932-6.92676 0-0.034792 0-0.069585 0-0.105401l2.046612-398.886803c0.058328-11.261485 9.203616-20.360723 20.466124-20.360723l78.926584 0c2.571568 0 4.464685-1.503237 5.601578-2.762927 0.406253-0.451278 0.832971-0.884137 1.278109-1.297552 3.26537-3.577478 3.847631-8.680706 1.295506-11.550057L517.565762 107.135042c-0.218988-0.199545-0.433882-0.403183-0.64366-0.611937-0.865717-0.860601-2.442632-1.209548-3.778046-1.344624l-3.284813 0c-1.297552 0.12382-2.839675 0.457418-3.693112 1.309832-0.208754 0.208754-0.422625 0.413416-0.64059 0.61296L109.677958 469.692429c-2.475378 2.750647-2.02103 7.612375 0.948605 11.197016 0.647753 0.543376 1.260713 1.125637 1.836835 1.744737 1.131777 1.216711 3.02694 2.667759 5.633301 2.667759l78.92556 0c11.242042 0 20.379143 9.067516 20.466124 20.308535l3.069919 398.885779c0 0.053212 0 0.105401 0 0.157589 0 3.226484 1.833765 5.564739 3.373841 6.958482 0.674359 0.610914 1.306762 1.26583 1.895163 1.960655 1.190105 1.409093 3.148713 3.088338 5.716188 3.088338L368.691083 916.66132c2.586918 0 4.489244-1.515516 5.630231-2.787486 0.705058-0.786922 1.470491-1.51654 2.288113-2.185782 1.741667-1.422396 3.816932-3.807722 3.816932-7.094582l0-6.362918c-0.26606-1.299599-0.51063-2.994194-0.51063-4.945639L379.915729 687.856194c0-19.59836 15.944134-35.542494 35.542494-35.542494l203.439412 0c19.596314 0 35.538401 15.944134 35.538401 35.542494l0 205.430766C654.43706 894.90276 654.259004 896.338459 654.045133 897.498888z" p-id="17194" fill="#ffffff"></path></svg>